<svg xmlns="http://www.w3.org/2000/svg" width="20" height="20" fill="none"><path stroke="#FFB21E" stroke-linecap="round" stroke-linejoin="round" stroke-width="1.25" d="M5.833 11.667a2.5 2.5 0 10.834 4.858m-3.114-3.521a3.333 3.333 0 01-.728-5.53m.025-.067a2.083 2.083 0 012.983-2.824m.199.054A2.083 2.083 0 1110 3.75v12.917a1.667 1.667 0 01-3.333 0M10 5.833a2.5 2.5 0 002.5 2.5m1.667 3.334a2.5 2.5 0 11-.834 4.858"/><path stroke="#FFB21E" stroke-linecap="round" stroke-linejoin="round" stroke-width="1.25" d="M16.447 13.004a3.334 3.334 0 00.728-5.53m-.025-.067a2.083 2.083 0 00-2.983-2.824M10 3.75a2.085 2.085 0 012.538-2.033 2.084 2.084 0 011.43 2.92m-.635 12.03a1.667 1.667 0 01-3.333 0"/></svg>